<svg width="858" height="190" viewBox="0 0 858 190" fill="none" xmlns="http://www.w3.org/2000/svg">
<path fill-rule="evenodd" clip-rule="evenodd" d="M94 189C145.915 189 188 146.915 188 95C188 43.0852 145.915 1 94 1C42.0852 1 0 43.0852 0 95C0 146.915 42.0852 189 94 189ZM153.99 71.5486V78.6152L153.99 78.6149C153.99 89.5811 149.628 100.097 141.865 107.853C134.1 115.606 123.571 119.963 112.592 119.963C109.541 119.963 106.613 121.173 104.455 123.329C102.297 125.484 101.085 128.408 101.085 131.455V133.173C101.113 135.138 100.265 137.013 98.7693 138.29C97.274 139.567 95.287 140.113 93.3474 139.778C91.7532 139.458 90.3244 138.579 89.3191 137.302C88.3138 136.026 87.7957 134.434 87.8592 132.81V131.455C87.8592 128.408 86.6473 125.484 84.4892 123.329C82.3311 121.173 79.404 119.963 76.3529 119.963C65.3733 119.963 54.8442 115.606 47.0798 107.853C39.3168 100.098 34.9548 89.5814 34.9548 78.6152V71.5486C34.9548 68.622 36.118 65.8164 38.189 63.7479C40.2599 61.6794 43.0691 60.5176 45.9992 60.5176H53.0744C61.0173 60.5101 68.795 62.7867 75.4791 67.0724C82.1616 71.3585 87.4696 77.4755 90.7688 84.6924C91.4405 86.1387 92.8915 87.0646 94.4887 87.0646C96.0858 87.0646 97.5369 86.1387 98.2085 84.6924C101.505 77.4801 106.809 71.3672 113.485 67.0815C120.163 62.7955 127.933 60.5176 135.87 60.5176H142.946C145.876 60.5176 148.685 61.6794 150.756 63.7479C152.827 65.8162 153.99 68.622 153.99 71.5486Z" fill="#005830"/>
<path d="M342.66 43.5801L301.375 157H281.266L239.98 43.5801H256.129L291.701 143.365L327.273 43.5801H342.66ZM423.631 114.496C423.631 128.359 420.076 139.303 412.967 147.326C405.857 155.35 396.336 159.361 384.402 159.361C372.367 159.361 362.795 155.35 355.686 147.326C348.627 139.303 345.098 128.359 345.098 114.496C345.098 100.633 348.627 89.6895 355.686 81.666C362.795 73.5918 372.367 69.5547 384.402 69.5547C396.336 69.5547 405.857 73.5918 412.967 81.666C420.076 89.6895 423.631 100.633 423.631 114.496ZM408.854 114.496C408.854 103.477 406.695 95.3008 402.379 89.9688C398.062 84.5859 392.07 81.8945 384.402 81.8945C376.633 81.8945 370.59 84.5859 366.273 89.9688C362.008 95.3008 359.875 103.477 359.875 114.496C359.875 125.16 362.033 133.26 366.35 138.795C370.666 144.279 376.684 147.021 384.402 147.021C392.02 147.021 397.986 144.305 402.303 138.871C406.67 133.387 408.854 125.262 408.854 114.496ZM460.346 157H446.025V38.4766H460.346V157ZM559.217 157H544.896V147.555C540.072 151.363 535.451 154.283 531.033 156.314C526.615 158.346 521.74 159.361 516.408 159.361C507.471 159.361 500.514 156.645 495.537 151.211C490.561 145.727 488.072 137.703 488.072 127.141V71.916H502.393V120.361C502.393 124.678 502.596 128.385 503.002 131.482C503.408 134.529 504.271 137.145 505.592 139.328C506.963 141.562 508.74 143.188 510.924 144.203C513.107 145.219 516.281 145.727 520.445 145.727C524.152 145.727 528.189 144.762 532.557 142.832C536.975 140.902 541.088 138.439 544.896 135.443V71.916H559.217V157ZM658.545 157H644.225V108.555C644.225 104.645 643.996 100.988 643.539 97.5859C643.082 94.1328 642.244 91.4414 641.025 89.5117C639.756 87.3789 637.928 85.8047 635.541 84.7891C633.154 83.7227 630.057 83.1895 626.248 83.1895C622.338 83.1895 618.25 84.1543 613.984 86.084C609.719 88.0137 605.631 90.4766 601.721 93.4727V157H587.4V71.916H601.721V81.3613C606.189 77.6543 610.811 74.7598 615.584 72.6777C620.357 70.5957 625.258 69.5547 630.285 69.5547C639.477 69.5547 646.484 72.3223 651.309 77.8574C656.133 83.3926 658.545 91.3652 658.545 101.775V157ZM757.34 115.943H694.65C694.65 121.174 695.438 125.744 697.012 129.654C698.586 133.514 700.744 136.688 703.486 139.176C706.127 141.613 709.25 143.441 712.855 144.66C716.512 145.879 720.523 146.488 724.891 146.488C730.68 146.488 736.494 145.346 742.334 143.061C748.225 140.725 752.414 138.439 754.902 136.205H755.664V151.82C750.84 153.852 745.914 155.553 740.887 156.924C735.859 158.295 730.578 158.98 725.043 158.98C710.926 158.98 699.906 155.172 691.984 147.555C684.062 139.887 680.102 129.02 680.102 114.953C680.102 101.039 683.885 89.9941 691.451 81.8184C699.068 73.6426 709.072 69.5547 721.463 69.5547C732.939 69.5547 741.775 72.9062 747.971 79.6094C754.217 86.3125 757.34 95.834 757.34 108.174V115.943ZM743.4 104.975C743.35 97.459 741.445 91.6445 737.688 87.5312C733.98 83.418 728.318 81.3613 720.701 81.3613C713.033 81.3613 706.914 83.6211 702.344 88.1406C697.824 92.6602 695.26 98.2715 694.65 104.975H743.4ZM852.707 157H834.654L810.508 124.322L786.209 157H769.527L802.738 114.572L769.832 71.916H787.885L811.879 104.061L835.949 71.916H852.707L819.268 113.811L852.707 157Z" fill="#005830"/>
</svg>
